# xmcd CD database file
#
# Track frame offsets:
#	150
#	10265
#	22517
#	36542
#	47275
#	56032
#	68365
#	80182
#	92227
#	105047
#	116192
#	130350
#	143952
#	152657
#	164472
#	177125
#	189205
#	200610
#	215612
#	223477
#
# Disc length: 3086 seconds
#
# Revision: 2
# Processed by: cddbd v1.4b41PL1 Copyright (c) Steve Scherf et al.
# Submitted via: Feurio! 1.50.2ß - http://www.feurio.com
#
DISCID=180c0c14
DTITLE=Angelika Mann and Gerlinde Kempendorff - Glanzlichter
DYEAR=1900
DGENRE=
TTITLE0=Es Gibt Nur Ein Berlin
TTITLE1=Wegen Emil Seine Unanständige Lust
TTITLE2=Hätt Franz Bloß Keen Freund Man Nicht
TTITLE3=Das Mädchen Mit Den 3 Blauen Augen
TTITLE4=Die Kleptomanin
TTITLE5=Warum Liebt Der Wladimir Gerade Mir
TTITLE6=Die Tante Ist Nicht Meine Tante
TTITLE7=Hannelore
TTITLE8=Das Zersägen Einer Lebenden Dame 
TTITLE9=Ein Neandertaler
TTITLE10=Warum Soll Er Nicht Mit Ihr
TTITLE11=Hätt`ste Det Von Ferdinand Gedacht
TTITLE12=Hermann Heeßt Er...!
TTITLE13=Warum Soll Eine frau Kein Verhältnis Haben
TTITLE14=Die Dame Der Alten Schule
TTITLE15=Nach Meine Beene Ist Ja Ganz Berlin Verrückt
TTITLE16=Das Dritte Girl Von Rechts
TTITLE17=Enthüllungen Einer Stripteasetänzerin
TTITLE18=Karrieren
TTITLE19=Da Geht Uns Der Hut Hoch
EXTD=
EXTT0=
EXTT1=
EXTT2=
EXTT3=
EXTT4=
EXTT5=
EXTT6=
EXTT7=
EXTT8=
EXTT9=
EXTT10=
EXTT11=
EXTT12=
EXTT13=
EXTT14=
EXTT15=
EXTT16=
EXTT17=
EXTT18=
EXTT19=
PLAYORDER=
